<?xml version="1.0" standalone="no"?><!DOCTYPE svg PUBLIC "-//W3C//DTD SVG 1.1//EN" "http://www.w3.org/Graphics/SVG/1.1/DTD/svg11.dtd"><svg t="1751562403920" class="icon" viewBox="0 0 1994 1024" version="1.1" xmlns="http://www.w3.org/2000/svg" p-id="37290" xmlns:xlink="http://www.w3.org/1999/xlink" width="124.625" height="64"><path d="M1492.749474 544.336842h70.063158l-91.621053 153.6h-40.421053l61.978948-153.6z m107.789473-247.915789h336.842106v40.421052h-350.31579l-45.810526 126.652632h115.873684v-61.978948h70.063158v61.978948h194.021053v40.421052h-194.021053v91.621053c0 32.336842-8.084211 59.284211-26.947368 75.452632-18.863158 16.168421-48.505263 24.252632-88.926316 26.947368v-37.726316c16.168421 0 26.947368-2.694737 35.031579-10.778947 8.084211-8.084211 10.778947-16.168421 10.778947-40.421053v-105.094737h-204.8l67.368421-167.073684h-83.536842V296.421053h99.705263l10.778948-29.642106h70.063157l-16.168421 29.642106z m-309.894736 167.073684v-61.978948h-334.147369v61.978948h334.147369z m70.063157-99.705263v140.126315h-199.410526v91.621053c0 32.336842-8.084211 59.284211-26.947368 75.452632-18.863158 16.168421-48.505263 24.252632-88.926316 26.947368v-37.726316c16.168421 0 26.947368-2.694737 35.031579-10.778947 8.084211-8.084211 10.778947-18.863158 10.778947-40.421053v-105.094737h-199.410526v-140.126315h468.88421z m-202.105263-67.368421h215.578948v40.421052h-501.221053V296.421053h215.578947V266.778947h70.063158V296.421053z m-285.642105 401.515789l59.284211-153.6h70.063157l-91.621052 153.6h-37.726316z m371.873684-153.6h70.063158l59.284211 153.6h-37.726316l-91.621053-153.6z m654.821053 153.6l-91.621053-153.6h70.063158l59.284211 153.6h-37.726316z m-1371.621053-218.273684h-88.926316l-2.694736 37.726316h91.621052v-37.726316z" fill="#E1251B" p-id="37291"></path><path d="M86.096842 239.831579s-8.084211 48.505263-21.557895 75.452632c-16.168421 29.642105-35.031579 67.368421-43.115789 80.842105-8.084211 13.473684 0 37.726316 8.08421 43.115789 8.084211 5.389474 43.115789 5.389474 56.589474-8.08421 13.473684-10.778947 43.115789-26.947368 51.2-51.2 8.084211-24.252632 8.084211-72.757895 5.389474-83.536842 0 0 10.778947-2.694737 10.778947 5.389473 2.694737 8.084211 13.473684 59.284211 83.536842 107.789474 70.063158 45.810526 142.821053 72.757895 183.242106 83.536842 40.421053 10.778947 107.789474 10.778947 175.157894-29.642105s121.263158-78.147368 167.073684-229.052632c0 0 13.473684-80.842105-21.557894-99.705263-35.031579-18.863158-121.263158-35.031579-218.273684-21.557895-99.705263 10.778947-210.189474 40.421053-272.168422 78.147369-64.673684 37.726316-70.063158 56.589474-83.536842 70.063158s-24.252632-29.642105-53.894736-29.642106c-32.336842 0-26.947368 8.084211-26.947369 8.084211z" fill="#EEEDEC" p-id="37292"></path><path d="M409.465263 204.8c0 10.778947 8.084211 18.863158 18.863158 18.863158 10.778947 0 18.863158-8.084211 18.863158-18.863158s-8.084211-18.863158-18.863158-18.863158-18.863158 8.084211-18.863158 18.863158z m196.71579-51.2c0 10.778947 26.947368 21.557895 61.978947 21.557895s61.978947-10.778947 61.978947-21.557895-26.947368-21.557895-61.978947-21.557895c-32.336842 0-61.978947 8.084211-61.978947 21.557895z" fill="#231815" p-id="37293"></path><path d="M433.717895 514.694737s-35.031579 80.842105-51.2 83.536842c-13.473684 2.694737-24.252632-2.694737-43.11579-16.168421-16.168421-13.473684 13.473684 29.642105 32.336842 32.336842 18.863158 0-13.473684 40.421053-21.557894 48.505263-8.084211 8.084211-16.168421 21.557895-16.168421 21.557895s-2.694737 10.778947 8.08421 8.08421c10.778947-2.694737 56.589474-61.978947 56.589474-64.673684 0-2.694737 24.252632-2.694737 24.252631 0s-8.084211 64.673684-8.08421 70.063158c2.694737 5.389474 13.473684 8.084211 16.168421 2.694737 2.694737-5.389474 5.389474-53.894737 10.778947-64.673684 5.389474-8.084211 24.252632-29.642105 43.11579-16.168421s16.168421 72.757895 18.863158 80.842105c2.694737 5.389474 16.168421 5.389474 16.168421 2.694737s-2.694737-172.463158 0-177.852632c8.084211-10.778947-37.726316-5.389474-86.231579-10.778947z" fill="#EEEDEC" p-id="37294"></path><path d="M541.507368 355.705263c70.063158 21.557895 140.126316 10.778947 175.157895-10.778947 5.389474-8.084211 8.084211-10.778947 10.778948-21.557895-29.642105 29.642105-105.094737 37.726316-185.936843 13.473684-53.894737-16.168421-99.705263-43.115789-123.957894-70.063158h-5.389474c-2.694737 2.694737-2.694737 5.389474-2.694737 8.084211 24.252632 32.336842 72.757895 61.978947 132.042105 80.842105z" fill="#231815" p-id="37295"></path></svg>